FFmpeg version SVN-r25716, Copyright (c) 2000-2010 the FFmpeg developers  built on Nov 10 2010 12:23:18 with gcc 4.1.2 20080704 (Red Hat 4.1.2-48)  configuration: --enable-libmp3lame --enable-shared --disable-mmx --arch=x86_64  libavutil     50.33. 0 / 50.33. 0  libavcore      0.12. 1 /  0.12. 1  libavcodec    52.94. 4 / 52.94. 4  libavformat   52.84. 0 / 52.84. 0  libavdevice   52. 2. 2 / 52. 2. 2  libavfilter    1.59. 0 /  1.59. 0  libswscale     0.12. 0 /  0.12. 0Input #0, avi, from '/RAID10/data/converted_video_files/47592.avi':  Duration: 00:00:09.70, start: 0.000000, bitrate: 177393 kb/s    Stream #0.0: Video: msvideo1, rgb555le, 1024x1024, 20 tbr, 20 tbn, 20 tbc[buffer @ 0x1200b3b0] w:1024 h:1024 pixfmt:rgb555le[ffsink @ 0x12027b40] auto-inserting filter 'auto-inserted scaler 0' between the filter 'src' and the filter 'out'[scale @ 0x12061e00] w:1024 h:1024 fmt:rgb555le -> w:1024 h:1024 fmt:yuv420p flags:0x4Output #0, flv, to '/RAID10/data/converted_video_files/47592.flv':  Metadata:    encoder         : Lavf52.84.0    Stream #0.0: Video: flv, yuv420p, 1024x1024, q=2-31, 600 kb/s, 1k tbn, 24 tbcStream mapping:  Stream #0.0 -> #0.0Press [q] to stop encodingframe=    3 fps=  0 q=8.0 size=     721kB time=0.12 bitrate=47232.6kbits/s    frame=    6 fps=  5 q=12.4 size=     948kB time=0.29 bitrate=26589.8kbits/s    frame=   10 fps=  5 q=11.8 size=    1133kB time=0.50 bitrate=18566.0kbits/s    frame=   14 fps=  6 q=14.2 size=    1283kB time=0.71 bitrate=14849.4kbits/s    frame=   18 fps=  6 q=16.0 size=    1391kB time=0.88 bitrate=13024.6kbits/s    frame=   24 fps=  7 q=31.0 size=    1443kB time=1.17 bitrate=10126.5kbits/s    frame=   29 fps=  7 q=31.0 size=    1465kB time=1.46 bitrate=8230.3kbits/s    frame=   36 fps=  8 q=31.0 size=    1510kB time=1.79 bitrate=6902.8kbits/s    frame=   41 fps=  8 q=31.0 size=    1522kB time=2.04 bitrate=6107.0kbits/s    frame=   47 fps=  8 q=31.0 size=    1567kB time=2.33 bitrate=5501.0kbits/s    frame=   52 fps=  8 q=31.0 size=    1583kB time=2.58 bitrate=5020.1kbits/s    frame=   57 fps=  9 q=31.0 size=    1621kB time=2.83 bitrate=4684.4kbits/s    frame=   62 fps=  9 q=31.0 size=    1661kB time=3.08 bitrate=4414.0kbits/s    frame=   69 fps=  9 q=31.0 size=    1704kB time=3.46 bitrate=4036.6kbits/s    frame=   75 fps=  9 q=31.0 size=    1751kB time=3.75 bitrate=3824.1kbits/s    frame=   80 fps=  9 q=31.0 size=    1787kB time=4.00 bitrate=3660.0kbits/s    frame=   87 fps=  9 q=31.0 size=    1815kB time=4.33 bitrate=3430.0kbits/s    frame=   93 fps=  9 q=31.0 size=    1857kB time=4.62 bitrate=3288.5kbits/s    frame=   99 fps=  9 q=31.0 size=    1884kB time=4.96 bitrate=3112.0kbits/s    frame=  104 fps=  9 q=31.0 size=    1935kB time=5.21 bitrate=3044.4kbits/s    frame=  110 fps=  9 q=31.0 size=    1951kB time=5.50 bitrate=2905.8kbits/s    frame=  116 fps=  9 q=31.0 size=    1998kB time=5.79 bitrate=2826.4kbits/s    frame=  121 fps=  9 q=31.0 size=    2024kB time=6.04 bitrate=2743.7kbits/s    frame=  126 fps=  9 q=31.0 size=    2036kB time=6.29 bitrate=2651.0kbits/s    frame=  131 fps=  9 q=31.0 size=    2089kB time=6.54 bitrate=2615.8kbits/s    frame=  137 fps=  9 q=31.0 size=    2118kB time=6.83 bitrate=2539.2kbits/s    frame=  142 fps=  9 q=31.0 size=    2168kB time=7.08 bitrate=2507.5kbits/s    frame=  148 fps=  9 q=31.0 size=    2181kB time=7.38 bitrate=2423.0kbits/s    frame=  153 fps=  9 q=31.0 size=    2234kB time=7.62 bitrate=2400.3kbits/s    frame=  159 fps=  9 q=31.0 size=    2252kB time=7.96 bitrate=2318.1kbits/s    frame=  164 fps=  9 q=31.0 size=    2289kB time=8.21 bitrate=2284.5kbits/s    frame=  169 fps=  9 q=31.0 size=    2303kB time=8.46 bitrate=2230.5kbits/s    frame=  174 fps=  9 q=31.0 size=    2336kB time=8.71 bitrate=2197.2kbits/s    frame=  180 fps= 10 q=31.0 size=    2378kB time=9.00 bitrate=2164.6kbits/s    frame=  182 fps=  9 q=31.0 Lsize=    2394kB time=9.08 bitrate=2159.0kbits/s    video:2391kB audio:0kB global headers:0kB muxing overhead 0.127527%